# xmcd CD database file
#
# Track frame offsets:
#	150
#	27126
#	55591
#	97865
#	127656
#	157678
#
# Disc length: 2413 seconds
#
# Revision: 1
# Processed by: cddbd v1.5.1PL2 Copyright (c) Steve Scherf et al.
# Submitted via: CDex 1.51
#
DISCID=2f096b06
DTITLE=Art Blakey and THE JAZZ MESSENGERS - Buhaina's Delight
DYEAR=1961
DGENRE=Jazz
TTITLE0=Backstage Sally
TTITLE1=Contemplation
TTITLE2=Bu's Delight
TTITLE3=Reincarnation Blues
TTITLE4=Shaky Jake
TTITLE5=Moon River
EXTD=YEAR: 1961
EXTT0=
EXTT1=
EXTT2=
EXTT3=
EXTT4=
EXTT5=
PLAYORDER=
